<?xml version="1.0" standalone="no"?>
<!DOCTYPE svg PUBLIC "-//W3C//DTD SVG 20010904//EN"
 "http://www.w3.org/TR/2001/REC-SVG-20010904/DTD/svg10.dtd">
<svg version="1.0" xmlns="http://www.w3.org/2000/svg"
 width="360.000000pt" height="350.000000pt" viewBox="0 0 360.000000 350.000000"
 preserveAspectRatio="xMidYMid meet">

<g transform="translate(0.000000,350.000000) scale(0.100000,-0.100000)"
fill="#000000" stroke="none">
<path d="M1701 3414 c0 -11 3 -14 6 -6 3 7 2 16 -1 19 -3 4 -6 -2 -5 -13z"/>
<path d="M1590 3409 c0 -5 5 -7 10 -4 6 3 10 8 10 11 0 2 -4 4 -10 4 -5 0 -10
-5 -10 -11z"/>
<path d="M1805 3410 c3 -5 8 -10 11 -10 2 0 4 5 4 10 0 6 -5 10 -11 10 -5 0
-7 -4 -4 -10z"/>
<path d="M1428 3383 c7 -3 16 -2 19 1 4 3 -2 6 -13 5 -11 0 -14 -3 -6 -6z"/>
<path d="M1968 3383 c7 -3 16 -2 19 1 4 3 -2 6 -13 5 -11 0 -14 -3 -6 -6z"/>
<path d="M1275 3340 c-3 -5 -1 -10 4 -10 6 0 11 5 11 10 0 6 -2 10 -4 10 -3 0
-8 -4 -11 -10z"/>
<path d="M1713 3344 c3 -3 -3 -26 -14 -51 -22 -52 -22 -53 -9 -53 6 0 9 6 8
12 -2 7 7 14 20 16 15 2 22 -2 22 -12 0 -9 5 -16 10 -16 13 0 13 -3 -5 58 -9
29 -21 52 -27 52 -6 0 -9 -3 -5 -6z m17 -49 c0 -8 -4 -15 -10 -15 -5 0 -10 7
-10 15 0 8 5 15 10 15 6 0 10 -7 10 -15z"/>
<path d="M2120 3340 c0 -5 5 -10 11 -10 5 0 7 5 4 10 -3 6 -8 10 -11 10 -2 0
-4 -4 -4 -10z"/>
<path d="M1544 3332 c-19 -3 -21 -8 -17 -45 7 -52 13 -60 46 -52 64 17 36 108
-29 97z m41 -47 c0 -39 -31 -48 -41 -11 -7 30 2 48 24 44 11 -2 17 -13 17 -33z"/>
<path d="M1846 3301 c-11 -68 -9 -73 26 -69 25 2 35 9 42 31 12 35 0 58 -36
68 -24 6 -26 4 -32 -30z m56 2 c7 -33 -4 -53 -28 -53 -27 0 -29 7 -14 44 11
30 37 35 42 9z"/>
<path d="M1424 3260 c5 -27 14 -50 18 -50 11 0 10 17 -3 63 -15 55 -27 45 -15
-13z"/>
<path d="M1120 3270 c0 -5 5 -10 10 -10 6 0 10 5 10 10 0 6 -4 10 -10 10 -5 0
-10 -4 -10 -10z"/>
<path d="M2270 3270 c0 -5 5 -10 11 -10 5 0 7 5 4 10 -3 6 -8 10 -11 10 -2 0
-4 -4 -4 -10z"/>
<path d="M2084 3248 c-35 -40 -47 -58 -38 -58 5 0 18 14 29 30 23 35 35 38 35
10 0 -12 -7 -20 -17 -20 -11 0 -14 -3 -7 -8 6 -4 15 -16 19 -27 8 -16 10 -10
13 29 4 59 -7 74 -34 44z"/>
<path d="M1277 3253 c-16 -16 -5 -32 25 -35 41 -4 47 -23 11 -36 -23 -9 -24
-11 -7 -11 25 -1 56 30 46 46 -4 6 -21 13 -37 15 -17 2 -29 8 -27 16 2 13 -1
15 -11 5z"/>
<path d="M1075 3240 c3 -5 8 -10 11 -10 2 0 4 5 4 10 0 6 -5 10 -11 10 -5 0
-7 -4 -4 -10z"/>
<path d="M2320 3239 c0 -5 5 -7 10 -4 6 3 10 8 10 11 0 2 -4 4 -10 4 -5 0 -10
-5 -10 -11z"/>
<path d="M2205 3180 c-20 -44 -10 -70 26 -70 17 0 59 52 59 73 0 18 -16 4 -30
-26 -19 -40 -50 -49 -50 -15 0 13 7 33 15 45 8 12 11 24 7 27 -5 3 -17 -12
-27 -34z"/>
<path d="M1131 3191 c-13 -8 -12 -15 4 -50 19 -43 37 -56 28 -21 -6 23 15 28
35 8 6 -6 15 -8 19 -4 4 4 0 12 -10 17 -9 6 -17 21 -17 34 0 19 -5 25 -22 25
-13 0 -29 -4 -37 -9z m49 -15 c0 -14 -29 -31 -38 -22 -2 3 -2 12 1 21 8 19 37
20 37 1z"/>
<path d="M2010 3130 c0 -5 5 -10 10 -10 6 0 10 5 10 10 0 6 -4 10 -10 10 -5 0
-10 -4 -10 -10z"/>
<path d="M895 3120 c-3 -5 -1 -10 4 -10 6 0 11 5 11 10 0 6 -2 10 -4 10 -3 0
-8 -4 -11 -10z"/>
<path d="M1009 3106 c-26 -22 -26 -23 -7 -46 10 -13 23 -30 27 -38 7 -13 12
-12 34 4 33 24 35 40 3 19 -28 -19 -45 -3 -24 22 11 14 10 15 -9 9 -30 -10
-38 9 -11 28 12 9 20 18 17 20 -2 2 -16 -6 -30 -18z"/>
<path d="M1583 3122 c-9 -6 -4 -23 17 -66 33 -66 41 -56 10 13 -11 24 -20 44
-20 46 0 2 16 3 35 2 24 -1 35 -6 35 -16 1 -13 2 -13 11 2 14 23 27 21 32 -5
l4 -23 2 23 c1 26 16 29 30 5 9 -15 10 -15 11 -2 0 10 11 15 35 16 19 1 35 0
35 -2 0 -2 -9 -22 -20 -46 -31 -69 -23 -79 10 -13 21 43 26 60 17 66 -7 4 -61
8 -122 8 -60 0 -115 -4 -122 -8z"/>
<path d="M2370 3115 c10 -12 8 -20 -9 -41 -12 -15 -21 -32 -21 -38 0 -6 10 4
23 22 18 26 27 31 47 27 22 -6 21 -4 -9 19 -39 29 -49 33 -31 11z"/>
<path d="M2495 3120 c-3 -5 1 -10 10 -10 9 0 13 5 10 10 -3 6 -8 10 -10 10 -2
0 -7 -4 -10 -10z"/>
<path d="M1285 3090 c3 -5 8 -10 11 -10 2 0 4 5 4 10 0 6 -5 10 -11 10 -5 0
-7 -4 -4 -10z"/>
<path d="M820 3039 c0 -5 5 -7 10 -4 6 3 10 8 10 11 0 2 -4 4 -10 4 -5 0 -10
-5 -10 -11z"/>
<path d="M1190 3039 c0 -5 5 -7 10 -4 6 3 10 8 10 11 0 2 -4 4 -10 4 -5 0 -10
-5 -10 -11z"/>
<path d="M2205 3040 c3 -5 8 -10 11 -10 2 0 4 5 4 10 0 6 -5 10 -11 10 -5 0
-7 -4 -4 -10z"/>
<path d="M2575 3040 c3 -5 8 -10 11 -10 2 0 4 5 4 10 0 6 -5 10 -11 10 -5 0
-7 -4 -4 -10z"/>
<path d="M910 3022 c0 -7 7 -26 15 -42 17 -34 10 -38 -23 -14 -12 8 -28 13
-35 11 -6 -3 10 -15 36 -27 27 -12 51 -19 54 -17 2 3 -7 27 -21 54 -14 26 -25
42 -26 35z"/>
<path d="M2538 3023 c7 -3 16 -2 19 1 4 3 -2 6 -13 5 -11 0 -14 -3 -6 -6z"/>
<path d="M2466 2999 c-28 -22 -33 -48 -14 -67 17 -17 42 -15 61 6 42 46 1 99
-47 61z m51 -15 c8 -21 -28 -57 -50 -48 -20 7 -22 35 -5 52 17 17 48 15 55 -4z"/>
<path d="M1614 2971 c-11 -11 -3 -51 10 -51 31 0 26 -23 -10 -54 -22 -18 -45
-51 -53 -72 -8 -22 -23 -51 -35 -65 -18 -21 -22 -40 -24 -112 -3 -90 7 -127
34 -127 10 0 13 -7 8 -25 -4 -15 -1 -32 7 -41 7 -9 12 -29 11 -46 -2 -23 2
-31 18 -35 38 -10 17 -41 -30 -47 -28 -3 -45 4 -96 41 -98 74 -163 97 -269 97
-81 1 -95 -2 -137 -27 -57 -33 -81 -66 -103 -139 -34 -120 39 -306 167 -423
53 -49 108 -168 90 -194 -46 -65 -64 -105 -64 -145 -2 -76 42 -121 128 -132
54 -7 84 -27 84 -56 0 -10 7 -18 16 -18 12 0 15 -7 12 -25 -6 -32 7 -32 27 -1
34 51 -8 106 -81 106 -63 0 -88 37 -63 94 17 36 40 41 62 14 88 -111 124 -149
204 -216 50 -42 112 -87 136 -100 l44 -23 52 30 c76 45 200 152 259 224 28 34
60 73 71 87 l21 25 25 -28 c48 -53 22 -107 -51 -107 -71 0 -113 -55 -79 -106
20 -31 33 -31 27 1 -3 18 0 25 11 25 8 0 17 13 20 29 7 31 15 36 90 46 119 16
156 131 78 242 -17 24 -31 48 -31 53 0 31 74 161 113 197 159 151 207 388 100
498 -57 59 -87 70 -188 70 -107 -1 -185 -29 -275 -99 -47 -37 -60 -43 -90 -38
-49 7 -67 35 -29 45 17 5 21 11 16 33 -3 17 1 33 10 42 10 10 13 25 9 44 -4
21 -2 28 9 28 25 0 34 43 31 135 -2 69 -7 90 -23 108 -11 12 -27 39 -34 61 -8
21 -31 54 -53 72 -37 32 -41 54 -10 54 11 0 14 8 12 26 -3 26 -4 27 -91 28
-49 0 -91 -1 -93 -3z m176 -26 c0 -12 -13 -15 -57 -15 -55 1 -57 1 -33 15 34
20 90 20 90 0z m-5 -91 c13 -16 21 -32 18 -36 -2 -5 1 -8 6 -8 6 0 11 -5 11
-11 0 -6 -8 -8 -17 -5 -10 4 1 -10 25 -30 23 -20 40 -40 37 -44 -3 -5 -1 -11
4 -15 6 -3 8 -12 5 -19 -5 -12 -11 -12 -41 0 -53 23 -59 12 -18 -31 34 -37 36
-42 30 -85 -14 -101 -80 -190 -140 -190 -60 0 -127 91 -141 190 -5 42 -3 48
34 88 23 25 49 42 63 43 18 1 19 3 6 6 -10 3 -38 -2 -62 -11 -56 -19 -60 -2
-5 20 23 9 39 18 36 21 -2 2 -20 -2 -39 -11 -52 -21 -57 4 -9 43 23 20 30 29
17 25 -15 -4 -13 1 10 21 22 19 25 24 10 19 -17 -5 -16 -2 5 15 14 11 21 21
15 21 -5 1 -1 6 10 11 11 5 40 7 64 5 33 -3 49 -10 66 -32z m-185 -178 c0 -9
-32 -36 -41 -36 -6 0 -5 8 1 20 9 17 40 29 40 16z m250 -16 c8 -16 8 -20 -4
-20 -9 0 -20 9 -26 20 -8 16 -8 20 4 20 9 0 20 -9 26 -20z m-308 -45 c3 -24 0
-35 -9 -35 -13 0 -19 51 -6 63 10 11 11 9 15 -28z m348 -6 c0 -17 -5 -29 -13
-29 -9 0 -12 11 -9 35 5 41 22 37 22 -6z m-342 -61 c16 -16 15 -38 -2 -38 -13
0 -26 20 -26 41 0 13 14 11 28 -3z m342 3 c0 -21 -13 -41 -26 -41 -17 0 -18
22 -2 38 14 14 28 16 28 3z m-310 -101 c0 -16 -4 -30 -10 -30 -5 0 -10 14 -10
30 0 17 5 30 10 30 6 0 10 -13 10 -30z m270 0 c0 -16 -4 -30 -10 -30 -5 0 -10
14 -10 30 0 17 5 30 10 30 6 0 10 -13 10 -30z m-502 -70 c45 -21 82 -43 82
-49 0 -6 -27 3 -61 20 -33 17 -63 28 -66 25 -3 -3 3 -9 13 -13 34 -12 94 -53
94 -63 0 -6 -24 3 -54 20 -53 29 -153 61 -186 59 -8 0 5 -6 30 -13 51 -14 107
-41 133 -64 31 -27 18 -30 -30 -6 -65 32 -69 30 -25 -11 l37 -36 -35 19 c-100
53 -225 71 -275 38 -15 -10 -28 -16 -30 -14 -10 10 38 70 74 94 84 55 171 53
299 -6z m990 19 c24 -12 57 -40 73 -62 30 -41 32 -60 5 -37 -46 38 -163 29
-261 -19 l-60 -30 38 36 c32 28 35 34 15 28 -12 -4 -38 -15 -55 -26 -18 -10
-33 -14 -33 -9 0 12 57 54 100 74 34 16 34 16 5 11 -16 -4 -59 -20 -95 -38
-36 -17 -69 -33 -75 -36 -32 -14 33 39 71 58 25 13 43 26 40 29 -3 3 -33 -9
-67 -26 -33 -17 -59 -26 -57 -20 6 18 128 77 179 88 59 12 124 4 177 -21z
m-742 -26 c-5 -12 -10 -13 -17 -6 -8 8 -7 18 2 34 12 21 14 22 17 6 2 -10 1
-25 -2 -34z m241 4 c-6 -19 -22 -6 -25 20 -2 27 -2 27 13 8 8 -10 14 -23 12
-28z m-185 6 c25 -23 82 -22 108 2 11 10 22 16 24 14 2 -2 7 -25 11 -51 l7
-48 -97 0 -97 0 6 31 c3 17 6 40 6 50 0 23 8 24 32 2z m-491 -87 c55 -16 139
-56 139 -65 0 -4 -17 -13 -37 -20 -21 -8 -63 -31 -94 -52 l-56 -38 -22 44
c-12 24 -24 67 -28 94 l-6 51 30 0 c16 0 50 -6 74 -14z m1187 -28 c-3 -24 -15
-66 -27 -94 l-23 -52 -51 34 c-28 19 -70 42 -94 51 -24 10 -43 21 -43 25 0 18
152 76 204 77 l39 1 -5 -42z m-1306 -10 c-9 -9 -12 -7 -12 12 0 19 3 21 12 12
9 -9 9 -15 0 -24z m763 22 c44 -5 101 -12 126 -15 47 -5 135 -35 226 -77 60
-28 163 -104 163 -119 0 -6 -16 -63 -35 -127 -70 -232 -189 -437 -342 -590
-78 -78 -215 -182 -238 -182 -23 0 -160 104 -238 182 -124 123 -247 315 -304
473 -21 56 -73 232 -73 244 0 14 95 83 157 115 76 38 178 75 229 82 186 25
227 27 329 14z m-785 -36 c0 -8 -5 -12 -10 -9 -6 4 -8 11 -5 16 9 14 15 11 15
-7z m65 -98 c17 -25 17 -28 -1 -47 -17 -19 -17 -22 6 -97 12 -42 25 -90 28
-107 l5 -30 -28 25 c-61 57 -145 209 -145 264 0 22 20 20 20 -1 1 -10 7 -29
15 -43 13 -23 13 -21 9 35 l-4 60 16 -43 c20 -54 27 -50 12 6 -11 44 -4 68 12
42 8 -12 10 -9 11 10 0 22 2 20 14 -12 7 -20 21 -48 30 -62z m1282 62 c-5 -33
-5 -33 6 -5 17 41 30 33 24 -15 l-6 -43 15 35 c14 35 14 35 9 -30 -4 -60 -3
-63 10 -40 8 14 14 35 15 48 0 12 5 22 10 22 6 0 10 -6 10 -13 0 -24 -39 -129
-64 -171 -33 -55 -96 -127 -106 -121 -4 3 5 45 21 95 34 105 34 108 13 131
-15 17 -15 21 -2 41 8 13 20 40 27 61 15 46 25 48 18 5z m-1167 -610 c-9 -30
-8 -31 5 -14 22 29 29 13 11 -23 -24 -46 -20 -73 5 -32 21 35 38 37 20 3 -18
-33 -13 -37 14 -12 31 29 46 18 17 -13 -27 -29 -42 -70 -35 -96 6 -25 -4 -27
-35 -5 -56 39 -65 119 -22 189 27 43 31 44 20 3z m1050 -49 c18 -52 6 -102
-31 -133 -39 -33 -53 -33 -45 -1 7 28 -5 57 -37 92 -28 31 -13 42 18 13 27
-25 32 -21 14 12 -18 34 -1 32 20 -3 16 -26 21 -29 21 -14 -1 11 -7 31 -15 45
-21 36 -18 46 6 25 20 -19 20 -19 10 9 -6 15 -11 30 -11 34 1 16 39 -45 50
-79z"/>
<path d="M1653 2820 c-36 -15 -27 -18 17 -6 30 7 49 7 72 -2 17 -6 34 -10 36
-7 8 7 -47 25 -76 24 -15 0 -37 -4 -49 -9z"/>
<path d="M1598 2754 c-38 -20 -36 -28 2 -9 17 9 30 18 30 20 0 7 -1 6 -32 -11z"/>
<path d="M1833 2725 c0 -8 4 -12 9 -9 5 3 6 10 3 15 -9 13 -12 11 -12 -6z"/>
<path d="M1738 2703 c6 -2 18 -2 25 0 6 3 1 5 -13 5 -14 0 -19 -2 -12 -5z"/>
<path d="M1606 2601 c-3 -5 6 -8 19 -8 14 0 28 3 31 8 3 5 -6 9 -20 9 -14 0
-27 -4 -30 -9z"/>
<path d="M1754 2601 c3 -5 17 -8 31 -8 13 0 22 3 19 8 -3 5 -16 9 -30 9 -14 0
-23 -4 -20 -9z"/>
<path d="M1688 2463 c12 -2 30 -2 40 0 9 3 -1 5 -23 4 -22 0 -30 -2 -17 -4z"/>
<path d="M2206 2371 c-3 -4 6 -6 19 -3 14 2 25 6 25 8 0 8 -39 4 -44 -5z"/>
<path d="M1693 2263 c9 -2 23 -2 30 0 6 3 -1 5 -18 5 -16 0 -22 -2 -12 -5z"/>
<path d="M1578 2253 c7 -3 16 -2 19 1 4 3 -2 6 -13 5 -11 0 -14 -3 -6 -6z"/>
<path d="M1818 2253 c7 -3 16 -2 19 1 4 3 -2 6 -13 5 -11 0 -14 -3 -6 -6z"/>
<path d="M1518 2243 c7 -3 16 -2 19 1 4 3 -2 6 -13 5 -11 0 -14 -3 -6 -6z"/>
<path d="M1878 2243 c7 -3 16 -2 19 1 4 3 -2 6 -13 5 -11 0 -14 -3 -6 -6z"/>
<path d="M1788 2223 c6 -2 18 -2 25 0 6 3 1 5 -13 5 -14 0 -19 -2 -12 -5z"/>
<path d="M1602 2200 c-12 -5 -25 -16 -28 -25 -8 -21 -21 -19 -29 5 -3 11 -12
20 -18 20 -18 0 -10 -140 9 -147 8 -3 14 -13 14 -22 0 -18 18 -41 32 -41 4 0
5 7 2 15 -4 8 -3 27 0 41 6 21 9 24 21 14 16 -14 21 0 5 16 -15 15 0 53 23 60
32 10 57 -28 57 -87 0 -94 -44 -156 -102 -145 -18 3 -58 10 -89 15 -76 12
-105 29 -168 96 -29 31 -56 54 -59 51 -3 -4 -1 -22 5 -41 13 -42 5 -44 -36 -9
-17 14 -31 21 -31 14 0 -22 30 -68 57 -88 36 -26 24 -39 -18 -18 -18 9 -34 16
-36 16 -12 0 41 -60 57 -65 30 -9 25 -28 -5 -21 -35 9 -31 1 18 -35 l42 -31
-34 4 -35 5 28 -24 c16 -13 41 -27 57 -30 36 -7 38 -23 3 -23 -22 0 -25 -2
-14 -15 7 -8 27 -15 46 -15 41 0 54 -17 18 -26 -23 -6 -24 -8 -10 -16 9 -5 30
-6 46 -3 37 8 41 -12 5 -21 -43 -11 -28 -27 20 -22 46 6 58 -3 28 -21 -14 -8
-7 -10 29 -8 42 2 48 5 48 24 0 21 1 22 38 7 20 -8 47 -27 59 -42 l23 -27 0
41 c0 22 6 49 14 59 13 18 14 18 25 -3 6 -11 11 -40 11 -64 0 -41 1 -42 13
-18 7 14 32 35 57 47 l45 21 5 -21 c4 -18 13 -22 50 -24 35 -2 41 -1 28 8 -31
18 -20 27 27 21 48 -5 63 11 20 22 -36 9 -32 29 5 21 16 -3 37 -2 46 3 14 8
13 10 -10 16 -36 9 -23 26 18 26 19 0 39 7 46 15 11 13 8 15 -14 15 -35 0 -33
16 3 23 16 3 41 17 57 30 l28 24 -35 -5 -34 -4 43 31 c48 36 52 44 17 35 -30
-7 -35 12 -5 21 16 5 69 65 57 65 -2 0 -18 -7 -36 -16 -42 -21 -54 -8 -18 18
27 20 57 66 57 88 0 7 -14 0 -31 -14 -29 -25 -56 -35 -45 -18 6 11 18 72 13
72 -2 0 -31 -27 -64 -59 -33 -33 -76 -66 -94 -74 -50 -21 -156 -31 -165 -16
-4 7 -7 45 -6 85 4 130 -46 205 -136 203 -26 0 -57 -4 -70 -9z m-42 -120 c0
-11 -4 -20 -10 -20 -5 0 -10 9 -10 20 0 11 5 20 10 20 6 0 10 -9 10 -20z
m-109 -197 c27 -5 41 -23 19 -23 -24 0 -91 34 -100 51 -17 31 -11 32 21 4 18
-14 45 -29 60 -32z m593 34 c-6 -16 -80 -57 -102 -57 -24 0 -11 18 17 23 16 3
42 17 57 31 32 27 38 27 28 3z m-586 -87 c12 0 13 -3 5 -11 -12 -12 -42 0 -75
29 -32 27 -19 32 18 7 20 -14 44 -25 52 -25z m327 -18 c-3 -3 -14 3 -25 13
-20 18 -21 18 -35 -1 -15 -19 -16 -19 -32 2 -17 21 -18 21 -34 1 -9 -11 -21
-17 -27 -13 -17 10 -15 29 3 22 9 -3 19 3 26 16 l11 21 18 -24 18 -23 13 26
12 27 29 -31 c16 -17 26 -33 23 -36z m245 43 c-19 -23 -69 -47 -81 -39 -6 3 7
14 29 24 22 10 43 23 47 30 4 6 9 9 12 6 3 -3 0 -13 -7 -21z m-520 5 c0 -5 -5
-10 -11 -10 -5 0 -7 5 -4 10 3 6 8 10 11 10 2 0 4 -4 4 -10z m405 0 c3 -5 1
-10 -4 -10 -6 0 -11 5 -11 10 0 6 2 10 4 10 3 0 8 -4 11 -10z m-464 -70 c10 0
21 -5 25 -12 11 -17 -56 -1 -78 19 -28 25 -21 37 8 14 15 -12 35 -21 45 -21z
m563 10 c-22 -22 -92 -41 -80 -22 4 7 15 12 25 12 11 0 29 9 42 19 30 24 40
17 13 -9z m-497 14 c-3 -3 -12 -4 -19 -1 -8 3 -5 6 6 6 11 1 17 -2 13 -5z
m400 0 c-3 -3 -12 -4 -19 -1 -8 3 -5 6 6 6 11 1 17 -2 13 -5z m-140 -54 c3 0
12 8 19 18 12 15 13 15 14 1 0 -9 -7 -23 -16 -30 -14 -11 -18 -10 -30 6 -8 10
-14 24 -14 29 0 6 -10 -5 -21 -24 l-21 -34 -19 23 c-19 23 -20 23 -40 5 -20
-18 -21 -18 -35 1 -16 21 -19 45 -5 45 5 0 11 -10 14 -22 l6 -22 26 24 c20 19
25 20 25 7 0 -35 44 -31 56 6 6 20 7 20 21 -6 7 -15 16 -27 20 -27z m-341 -5
c16 -8 41 -15 57 -15 15 0 27 -4 27 -10 0 -23 -107 2 -124 29 -10 15 6 14 40
-4z m578 4 c-17 -27 -124 -52 -124 -29 0 6 12 10 28 10 15 0 38 7 52 14 31 17
53 20 44 5z m-292 -52 c19 17 20 17 30 0 8 -14 13 -16 24 -6 8 7 14 7 14 1 0
-5 -6 -15 -14 -21 -11 -10 -17 -8 -25 6 -11 17 -12 17 -26 -1 -15 -19 -45 -16
-45 5 0 8 -7 6 -19 -5 -17 -15 -19 -15 -32 1 -12 15 -12 16 3 10 12 -4 21 0
29 14 l11 21 15 -22 c14 -21 16 -21 35 -3z m-217 -7 l40 -7 -46 -2 c-33 -1
-51 4 -60 16 -12 15 -12 16 6 8 11 -4 38 -11 60 -15z m465 5 c-8 -10 -29 -15
-59 -14 l-46 2 42 6 c24 4 46 10 49 14 14 14 26 7 14 -8z m-450 -45 c8 -5 12
-11 9 -14 -7 -8 -49 5 -49 15 0 12 21 11 40 -1z m151 -14 c0 11 3 14 6 6 3 -7
2 -20 -1 -29 -6 -14 -10 -13 -31 7 -14 13 -25 28 -25 33 0 6 11 0 25 -13 23
-22 25 -22 26 -4z m189 14 c0 -5 -5 -10 -11 -10 -5 0 -7 5 -4 10 3 6 8 10 11
10 2 0 4 -4 4 -10z m70 1 c0 -10 -42 -23 -49 -15 -7 6 20 24 37 24 6 0 12 -4
12 -9z m-176 -22 c4 6 12 11 18 11 6 0 3 -9 -7 -20 -20 -22 -35 -18 -35 8 0
13 2 14 9 3 6 -9 11 -10 15 -2z"/>
<path d="M1918 2203 c7 -3 16 -2 19 1 4 3 -2 6 -13 5 -11 0 -14 -3 -6 -6z"/>
<path d="M1315 2185 c-16 -8 -23 -14 -15 -14 8 0 26 6 40 14 32 18 15 18 -25
0z"/>
<path d="M1410 2190 c-13 -9 -13 -10 0 -10 8 0 22 5 30 10 13 9 13 10 0 10 -8
0 -22 -5 -30 -10z"/>
<path d="M1788 2193 c6 -2 18 -2 25 0 6 3 1 5 -13 5 -14 0 -19 -2 -12 -5z"/>
<path d="M1840 2192 c22 -13 87 -24 75 -13 -6 5 -28 11 -50 15 -25 4 -34 3
-25 -2z"/>
<path d="M1980 2185 c47 -18 74 -18 31 0 -18 8 -41 15 -50 14 -9 0 0 -7 19
-14z"/>
<path d="M2051 2195 c9 -8 79 -35 79 -30 0 2 -16 12 -36 20 -37 15 -51 19 -43
10z"/>
<path d="M2060 2160 c8 -5 20 -10 25 -10 6 0 3 5 -5 10 -8 5 -19 10 -25 10 -5
0 -3 -5 5 -10z"/>
<path d="M1245 2150 c-3 -6 1 -7 9 -4 18 7 21 14 7 14 -6 0 -13 -4 -16 -10z"/>
<path d="M1818 2133 c7 -3 16 -2 19 1 4 3 -2 6 -13 5 -11 0 -14 -3 -6 -6z"/>
<path d="M1310 2120 c-8 -5 -10 -10 -5 -10 6 0 17 5 25 10 8 5 11 10 5 10 -5
0 -17 -5 -25 -10z"/>
<path d="M1478 2113 c7 -3 16 -2 19 1 4 3 -2 6 -13 5 -11 0 -14 -3 -6 -6z"/>
<path d="M2090 2116 c0 -2 7 -7 16 -10 8 -3 12 -2 9 4 -6 10 -25 14 -25 6z"/>
<path d="M1145 2084 l-30 -26 33 22 c17 12 32 23 32 26 0 7 -4 5 -35 -22z"/>
<path d="M1209 2093 c-13 -16 -12 -17 4 -4 9 7 17 15 17 17 0 8 -8 3 -21 -13z"/>
<path d="M2180 2106 c0 -2 8 -10 18 -17 15 -13 16 -12 3 4 -13 16 -21 21 -21
13z"/>
<path d="M2230 2106 c0 -2 14 -14 30 -26 17 -12 30 -19 30 -16 0 2 -13 14 -30
26 -16 12 -30 19 -30 16z"/>
<path d="M1310 2090 c-8 -5 -10 -10 -5 -10 6 0 17 5 25 10 8 5 11 10 5 10 -5
0 -17 -5 -25 -10z"/>
<path d="M1460 2084 l-35 -14 35 6 c36 6 46 11 39 18 -2 2 -20 -3 -39 -10z"/>
<path d="M1910 2085 c30 -8 60 -14 65 -14 20 2 -71 27 -95 27 -14 0 0 -6 30
-13z"/>
<path d="M2024 2080 c28 -11 51 -18 53 -16 5 5 -74 36 -90 36 -6 -1 10 -10 37
-20z"/>
<path d="M2080 2090 c8 -5 20 -10 25 -10 6 0 3 5 -5 10 -8 5 -19 10 -25 10 -5
0 -3 -5 5 -10z"/>
<path d="M1360 2080 c-8 -5 -10 -10 -5 -10 6 0 17 5 25 10 8 5 11 10 5 10 -5
0 -17 -5 -25 -10z"/>
<path d="M1638 2083 c7 -3 16 -2 19 1 4 3 -2 6 -13 5 -11 0 -14 -3 -6 -6z"/>
<path d="M1838 2073 c7 -3 16 -2 19 1 4 3 -2 6 -13 5 -11 0 -14 -3 -6 -6z"/>
<path d="M1149 2053 c-13 -17 -13 -17 6 -3 11 8 22 16 24 17 2 2 0 3 -6 3 -6
0 -17 -8 -24 -17z"/>
<path d="M1658 2053 c7 -3 16 -2 19 1 4 3 -2 6 -13 5 -11 0 -14 -3 -6 -6z"/>
<path d="M2250 2056 c0 -2 8 -10 18 -17 15 -13 16 -12 3 4 -13 16 -21 21 -21
13z"/>
<path d="M1591 2045 c0 -5 6 -21 14 -35 16 -29 19 -60 6 -60 -5 0 -11 8 -14
18 -4 16 -4 16 -12 -1 -9 -22 8 -42 29 -34 21 8 19 44 -4 87 -11 19 -19 31
-19 25z"/>
<path d="M2020 2020 c8 -5 20 -10 25 -10 6 0 3 5 -5 10 -8 5 -19 10 -25 10 -5
0 -3 -5 5 -10z"/>
<path d="M2240 2025 c0 -2 10 -10 23 -16 20 -11 21 -11 8 4 -13 16 -31 23 -31
12z"/>
<path d="M1135 2010 c-3 -6 1 -7 9 -4 18 7 21 14 7 14 -6 0 -13 -4 -16 -10z"/>
<path d="M1390 2000 c-9 -6 -10 -10 -3 -10 6 0 15 5 18 10 8 12 4 12 -15 0z"/>
<path d="M1465 1995 c-40 -14 -40 -14 -5 -9 19 4 39 10 45 15 11 11 10 11 -40
-6z"/>
<path d="M1868 2003 c7 -3 16 -2 19 1 4 3 -2 6 -13 5 -11 0 -14 -3 -6 -6z"/>
<path d="M1900 1999 c0 -5 9 -9 20 -9 11 0 20 2 20 4 0 2 -9 6 -20 9 -11 3
-20 1 -20 -4z"/>
<path d="M2000 2000 c0 -6 7 -10 15 -10 8 0 15 2 15 4 0 2 -7 6 -15 10 -8 3
-15 1 -15 -4z"/>
<path d="M2221 2007 c2 -1 13 -9 24 -17 19 -14 19 -14 6 3 -7 9 -18 17 -24 17
-6 0 -8 -1 -6 -3z"/>
<path d="M1170 1969 c-22 -18 -22 -19 -3 -10 12 6 25 16 28 21 9 15 3 12 -25
-11z"/>
<path d="M1958 1983 c7 -3 16 -2 19 1 4 3 -2 6 -13 5 -11 0 -14 -3 -6 -6z"/>
<path d="M2227 1969 c12 -12 24 -21 27 -18 2 2 -8 13 -22 23 l-27 19 22 -24z"/>
<path d="M1175 1910 c-3 -6 1 -7 9 -4 18 7 21 14 7 14 -6 0 -13 -4 -16 -10z"/>
<path d="M2197 1859 c7 -7 15 -10 18 -7 3 3 -2 9 -12 12 -14 6 -15 5 -6 -5z"/>
<path d="M1205 1800 c-3 -5 -1 -10 4 -10 6 0 11 5 11 10 0 6 -2 10 -4 10 -3 0
-8 -4 -11 -10z"/>
<path d="M2185 1800 c3 -5 11 -10 16 -10 6 0 7 5 4 10 -3 6 -11 10 -16 10 -6
0 -7 -4 -4 -10z"/>
<path d="M1245 1730 c-3 -6 1 -7 9 -4 18 7 21 14 7 14 -6 0 -13 -4 -16 -10z"/>
<path d="M2147 1729 c7 -7 15 -10 18 -7 3 3 -2 9 -12 12 -14 6 -15 5 -6 -5z"/>
<path d="M1259 1703 c-13 -16 -12 -17 4 -4 9 7 17 15 17 17 0 8 -8 3 -21 -13z"/>
<path d="M1280 1690 c-9 -6 -10 -10 -3 -10 6 0 15 5 18 10 8 12 4 12 -15 0z"/>
<path d="M2110 1696 c0 -2 8 -10 18 -17 15 -13 16 -12 3 4 -13 16 -21 21 -21
13z"/>
<path d="M2080 1676 c0 -2 7 -7 16 -10 8 -3 12 -2 9 4 -6 10 -25 14 -25 6z"/>
<path d="M1299 1633 c-13 -16 -12 -17 4 -4 9 7 17 15 17 17 0 8 -8 3 -21 -13z"/>
<path d="M2090 1646 c0 -2 8 -10 18 -17 15 -13 16 -12 3 4 -13 16 -21 21 -21
13z"/>
<path d="M2060 1626 c0 -2 7 -7 16 -10 8 -3 12 -2 9 4 -6 10 -25 14 -25 6z"/>
<path d="M2056 1595 c10 -8 23 -15 28 -15 6 0 1 7 -10 15 -10 8 -23 15 -28 15
-6 0 -1 -7 10 -15z"/>
<path d="M1481 1544 c-1 -7 7 -20 17 -31 9 -10 14 -14 10 -9 -16 20 -7 26 40
26 29 0 42 3 34 9 -7 4 -31 5 -52 1 -26 -5 -41 -3 -44 4 -3 8 -5 8 -5 0z"/>
<path d="M1630 1537 c0 -8 7 -17 15 -21 8 -3 15 -2 15 3 0 5 -7 14 -15 21 -12
10 -15 10 -15 -3z"/>
<path d="M1701 1534 c0 -11 3 -14 6 -6 3 7 2 16 -1 19 -3 4 -6 -2 -5 -13z"/>
<path d="M1761 1536 c-8 -9 -11 -19 -7 -23 9 -9 29 13 24 27 -2 8 -8 7 -17 -4z"/>
<path d="M1828 1538 c-8 -4 4 -8 30 -8 23 0 42 2 42 4 0 8 -60 12 -72 4z"/>
<path d="M1916 1532 c-4 -10 -23 -31 -44 -46 -32 -23 -34 -26 -14 -26 13 0 22
6 22 15 0 8 4 15 10 15 12 0 45 49 37 56 -3 3 -8 -3 -11 -14z"/>
<path d="M2008 1530 c42 -26 56 -26 17 0 -16 11 -34 20 -40 20 -5 0 5 -9 23
-20z"/>
<path d="M1374 1524 c-18 -14 -18 -15 4 -4 12 6 22 13 22 15 0 8 -5 6 -26 -11z"/>
<path d="M1414 1514 c-18 -14 -18 -15 4 -4 12 6 22 13 22 15 0 8 -5 6 -26 -11z"/>
<path d="M1980 1510 c8 -5 20 -10 25 -10 6 0 3 5 -5 10 -8 5 -19 10 -25 10 -5
0 -3 -5 5 -10z"/>
<path d="M1578 1493 c7 -3 16 -2 19 1 4 3 -2 6 -13 5 -11 0 -14 -3 -6 -6z"/>
<path d="M1818 1493 c7 -3 16 -2 19 1 4 3 -2 6 -13 5 -11 0 -14 -3 -6 -6z"/>
<path d="M1960 1496 c0 -2 7 -7 16 -10 8 -3 12 -2 9 4 -6 10 -25 14 -25 6z"/>
<path d="M1470 1482 c0 -4 10 -9 22 -9 18 -2 20 0 8 7 -18 12 -30 13 -30 2z"/>
<path d="M1530 1476 c0 -10 8 -16 22 -16 12 0 19 1 17 3 -2 1 -12 9 -21 16
-15 12 -18 11 -18 -3z"/>
<path d="M1625 1480 c-3 -6 1 -7 9 -4 18 7 21 14 7 14 -6 0 -13 -4 -16 -10z"/>
<path d="M1715 1480 c-4 -6 -11 -8 -16 -5 -5 3 -6 -1 -2 -10 4 -12 8 -13 13
-5 4 7 14 16 21 21 9 6 10 9 2 9 -6 0 -15 -5 -18 -10z"/>
<path d="M1778 1472 c9 -10 19 -17 21 -16 6 5 -20 34 -30 34 -5 0 -1 -8 9 -18z"/>
<path d="M1910 1480 c-12 -7 -10 -9 8 -7 12 0 22 5 22 9 0 11 -12 10 -30 -2z"/>
<path d="M1967 1459 c7 -7 15 -10 18 -7 3 3 -2 9 -12 12 -14 6 -15 5 -6 -5z"/>
<path d="M1492 1440 c8 -14 24 -30 36 -35 11 -6 28 -17 38 -25 16 -12 17 -12
7 0 -7 8 -13 24 -13 37 0 13 -4 23 -10 23 -5 0 -7 -7 -4 -15 10 -24 -13 -17
-42 13 -26 26 -27 26 -12 2z"/>
<path d="M1435 1430 c-3 -6 1 -7 9 -4 18 7 21 14 7 14 -6 0 -13 -4 -16 -10z"/>
<path d="M1820 1419 c16 -15 33 -23 47 -21 24 4 64 42 45 42 -7 0 -12 -4 -12
-10 0 -19 -48 -22 -77 -4 l-28 18 25 -25z"/>
<path d="M1848 1433 c7 -3 16 -2 19 1 4 3 -2 6 -13 5 -11 0 -14 -3 -6 -6z"/>
<path d="M1950 1436 c0 -2 7 -7 16 -10 8 -3 12 -2 9 4 -6 10 -25 14 -25 6z"/>
<path d="M1455 1410 c-3 -6 1 -7 9 -4 18 7 21 14 7 14 -6 0 -13 -4 -16 -10z"/>
<path d="M1930 1416 c0 -2 7 -7 16 -10 8 -3 12 -2 9 4 -6 10 -25 14 -25 6z"/>
<path d="M1629 1353 c-9 -10 -9 -14 -2 -10 7 5 24 0 37 -9 14 -9 31 -14 38
-11 8 4 7 6 -4 6 -10 1 -26 10 -36 21 -18 19 -20 20 -33 3z"/>
<path d="M1735 1350 c-10 -11 -13 -20 -7 -20 6 0 14 5 17 11 4 6 14 8 22 4 13
-4 14 -3 3 10 -15 19 -13 19 -35 -5z"/>
<path d="M1822 1354 c-7 -8 -8 -14 -3 -14 10 0 25 19 20 25 -2 1 -10 -3 -17
-11z"/>
<path d="M1580 1350 c0 -5 5 -10 11 -10 5 0 7 5 4 10 -3 6 -8 10 -11 10 -2 0
-4 -4 -4 -10z"/>
<path d="M1858 1323 c7 -3 16 -2 19 1 4 3 -2 6 -13 5 -11 0 -14 -3 -6 -6z"/>
<path d="M1600 1311 c0 -4 11 -6 25 -3 14 2 25 6 25 8 0 2 -11 4 -25 4 -14 0
-25 -4 -25 -9z"/>
<path d="M1780 1316 c0 -2 7 -6 15 -10 8 -3 15 -1 15 4 0 6 -7 10 -15 10 -8 0
-15 -2 -15 -4z"/>
<path d="M1628 1253 c7 -3 16 -2 19 1 4 3 -2 6 -13 5 -11 0 -14 -3 -6 -6z"/>
<path d="M1768 1253 c7 -3 16 -2 19 1 4 3 -2 6 -13 5 -11 0 -14 -3 -6 -6z"/>
<path d="M1655 1230 c3 -5 12 -7 20 -3 21 7 19 13 -6 13 -11 0 -18 -4 -14 -10z"/>
<path d="M1720 1236 c0 -9 30 -14 35 -6 4 6 -3 10 -14 10 -12 0 -21 -2 -21 -4z"/>
<path d="M1698 1203 c7 -3 16 -2 19 1 4 3 -2 6 -13 5 -11 0 -14 -3 -6 -6z"/>
<path d="M825 2865 c21 -18 43 -31 47 -28 9 5 -65 63 -79 63 -5 -1 10 -16 32
-35z"/>
<path d="M2566 2869 c-41 -31 -33 -41 11 -12 l26 17 -17 -32 c-31 -59 -15 -69
36 -22 18 16 28 30 22 30 -6 0 -17 -7 -24 -15 -22 -26 -29 -16 -14 20 23 56
18 58 -40 14z"/>
<path d="M730 2801 c0 -5 10 -13 23 -17 20 -7 19 -9 -12 -14 -49 -7 -48 -23 1
-49 l43 -22 -30 25 -30 26 42 0 c23 0 44 3 46 8 3 4 -15 17 -39 30 -24 12 -44
18 -44 13z"/>
<path d="M2651 2736 c-20 -24 -10 -70 16 -74 50 -7 84 43 51 76 -16 16 -53 15
-67 -2z m60 -12 c11 -14 10 -19 -9 -35 -13 -10 -30 -15 -37 -12 -21 7 -19 40
3 52 23 14 27 14 43 -5z"/>
<path d="M590 2730 c0 -5 5 -10 10 -10 6 0 10 5 10 10 0 6 -4 10 -10 10 -5 0
-10 -4 -10 -10z"/>
<path d="M2800 2730 c0 -5 5 -10 10 -10 6 0 10 5 10 10 0 6 -4 10 -10 10 -5 0
-10 -4 -10 -10z"/>
<path d="M2820 2680 c0 -5 5 -10 10 -10 6 0 10 5 10 10 0 6 -4 10 -10 10 -5 0
-10 -4 -10 -10z"/>
<path d="M2575 2660 c3 -5 8 -10 11 -10 2 0 4 5 4 10 0 6 -5 10 -11 10 -5 0
-7 -4 -4 -10z"/>
<path d="M650 2655 c0 -3 16 -11 36 -20 25 -10 34 -20 32 -32 -4 -19 -21 -21
-73 -9 -25 5 -23 3 13 -16 43 -22 44 -22 58 -3 21 29 17 43 -18 65 -33 20 -48
25 -48 15z"/>
<path d="M2733 2589 c-18 -5 -33 -14 -33 -20 0 -6 7 -8 15 -5 44 18 48 16 22
-8 l-28 -26 35 0 c44 0 47 -14 6 -29 -16 -5 -30 -12 -30 -15 0 -3 21 2 48 12
53 20 57 35 11 42 l-31 5 21 19 c38 35 26 43 -36 25z"/>
<path d="M771 2564 c0 -11 3 -14 6 -6 3 7 2 16 -1 19 -3 4 -6 -2 -5 -13z"/>
<path d="M2631 2564 c0 -11 3 -14 6 -6 3 7 2 16 -1 19 -3 4 -6 -2 -5 -13z"/>
<path d="M735 2460 c3 -5 8 -10 11 -10 2 0 4 5 4 10 0 6 -5 10 -11 10 -5 0 -7
-4 -4 -10z"/>
<path d="M611 2411 c-25 -3 -46 -12 -49 -18 -2 -7 2 -13 8 -13 7 0 25 -9 42
-21 16 -12 32 -19 35 -15 3 3 -1 8 -9 11 -19 7 -12 45 8 45 7 0 16 5 19 10 3
6 3 9 -2 8 -4 0 -28 -4 -52 -7z m9 -21 c0 -5 -4 -10 -9 -10 -6 0 -13 5 -16 10
-3 6 1 10 9 10 9 0 16 -4 16 -10z"/>
<path d="M2773 2387 c19 -19 19 -21 2 -33 -34 -25 -10 -23 33 3 49 29 46 38
-14 46 l-42 5 21 -21z m47 -7 c-19 -13 -30 -13 -30 0 0 6 10 10 23 10 18 0 19
-2 7 -10z"/>
<path d="M700 2360 c0 -5 5 -10 10 -10 6 0 10 5 10 10 0 6 -4 10 -10 10 -5 0
-10 -4 -10 -10z"/>
<path d="M2690 2360 c0 -5 5 -10 10 -10 6 0 10 5 10 10 0 6 -4 10 -10 10 -5 0
-10 -4 -10 -10z"/>
<path d="M2930 2310 c0 -5 5 -10 11 -10 5 0 7 5 4 10 -3 6 -8 10 -11 10 -2 0
-4 -4 -4 -10z"/>
<path d="M542 2250 c0 -25 2 -37 5 -27 3 12 15 17 46 18 l42 1 -42 10 c-25 5
-43 16 -46 26 -3 9 -5 -3 -5 -28z"/>
<path d="M685 2250 c3 -5 8 -10 11 -10 2 0 4 5 4 10 0 6 -5 10 -11 10 -5 0 -7
-4 -4 -10z"/>
<path d="M2710 2249 c0 -5 5 -7 10 -4 6 3 10 8 10 11 0 2 -4 4 -10 4 -5 0 -10
-5 -10 -11z"/>
<path d="M2948 2253 c7 -3 16 -2 19 1 4 3 -2 6 -13 5 -11 0 -14 -3 -6 -6z"/>
<path d="M2782 2164 c4 -46 26 -63 62 -46 21 9 26 19 26 47 0 35 0 35 -46 35
l-45 0 3 -36z m76 -6 c-2 -18 -10 -23 -33 -23 -34 0 -48 30 -18 38 43 11 54 7
51 -15z"/>
<path d="M2948 2193 c7 -3 16 -2 19 1 4 3 -2 6 -13 5 -11 0 -14 -3 -6 -6z"/>
<path d="M450 2139 c0 -5 5 -7 10 -4 6 3 10 8 10 11 0 2 -4 4 -10 4 -5 0 -10
-5 -10 -11z"/>
<path d="M2715 2140 c3 -5 8 -10 11 -10 2 0 4 5 4 10 0 6 -5 10 -11 10 -5 0
-7 -4 -4 -10z"/>
<path d="M2940 2140 c0 -5 7 -10 15 -10 8 0 15 5 15 10 0 6 -7 10 -15 10 -8 0
-15 -4 -15 -10z"/>
<path d="M553 2113 c15 -2 39 -2 55 0 15 2 2 4 -28 4 -30 0 -43 -2 -27 -4z"/>
<path d="M450 2090 c0 -5 5 -10 11 -10 5 0 7 5 4 10 -3 6 -8 10 -11 10 -2 0
-4 -4 -4 -10z"/>
<path d="M680 2090 c0 -5 5 -10 11 -10 5 0 7 5 4 10 -3 6 -8 10 -11 10 -2 0
-4 -4 -4 -10z"/>
<path d="M2715 2090 c-3 -5 -1 -10 4 -10 6 0 11 5 11 10 0 6 -2 10 -4 10 -3 0
-8 -4 -11 -10z"/>
<path d="M2945 2090 c-3 -5 1 -10 9 -10 9 0 16 5 16 10 0 6 -4 10 -9 10 -6 0
-13 -4 -16 -10z"/>
<path d="M685 2030 c3 -5 8 -10 11 -10 2 0 4 5 4 10 0 6 -5 10 -11 10 -5 0 -7
-4 -4 -10z"/>
<path d="M2710 2029 c0 -5 5 -7 10 -4 6 3 10 8 10 11 0 2 -4 4 -10 4 -5 0 -10
-5 -10 -11z"/>
<path d="M2774 2016 c-3 -8 -4 -23 -1 -33 3 -12 5 -9 6 9 1 20 5 26 15 22 8
-3 17 -13 19 -22 4 -15 5 -15 6 1 1 9 9 17 20 17 14 0 17 -6 15 -27 l-4 -28
11 28 c6 16 9 30 8 31 -2 2 -23 7 -46 11 -34 5 -44 3 -49 -9z"/>
<path d="M625 2011 c-3 -6 -21 -10 -38 -8 -29 2 -32 -1 -35 -30 -3 -31 -2 -33
30 -32 18 0 42 4 53 9 20 8 20 9 -1 9 -32 1 -37 14 -12 32 12 10 20 20 16 24
-3 3 -9 2 -13 -4z m-35 -41 c0 -11 -7 -20 -15 -20 -8 0 -15 9 -15 20 0 11 7
20 15 20 8 0 15 -9 15 -20z"/>
<path d="M690 1980 c0 -5 5 -10 10 -10 6 0 10 5 10 10 0 6 -4 10 -10 10 -5 0
-10 -4 -10 -10z"/>
<path d="M2700 1980 c0 -5 5 -10 10 -10 6 0 10 5 10 10 0 6 -4 10 -10 10 -5 0
-10 -4 -10 -10z"/>
<path d="M470 1920 c0 -5 5 -10 10 -10 6 0 10 5 10 10 0 6 -4 10 -10 10 -5 0
-10 -4 -10 -10z"/>
<path d="M2920 1920 c0 -5 5 -10 10 -10 6 0 10 5 10 10 0 6 -4 10 -10 10 -5 0
-10 -4 -10 -10z"/>
<path d="M658 1840 c3 -22 0 -30 -11 -30 -8 0 -18 6 -20 13 -3 7 -6 5 -6 -5
-1 -25 -20 -22 -31 5 -8 20 -9 20 -9 2 -1 -41 13 -50 59 -36 36 11 41 16 36
34 -3 12 -6 28 -6 35 0 6 -4 12 -8 12 -5 0 -7 -13 -4 -30z"/>
<path d="M2730 1820 c0 -5 9 -11 19 -15 14 -4 19 -14 18 -33 -2 -21 3 -28 20
-30 17 -3 24 3 29 23 4 15 3 30 -2 35 -14 13 -84 29 -84 20z m70 -50 c0 -11
-7 -20 -15 -20 -15 0 -21 21 -8 33 12 13 23 7 23 -13z"/>
<path d="M530 1810 c0 -12 28 -25 36 -17 3 3 -4 10 -15 17 -15 7 -21 7 -21 0z"/>
<path d="M510 1760 c0 -5 5 -10 10 -10 6 0 10 5 10 10 0 6 -4 10 -10 10 -5 0
-10 -4 -10 -10z"/>
<path d="M2880 1760 c0 -5 5 -10 10 -10 6 0 10 5 10 10 0 6 -4 10 -10 10 -5 0
-10 -4 -10 -10z"/>
<path d="M531 1704 c0 -11 3 -14 6 -6 3 7 2 16 -1 19 -3 4 -6 -2 -5 -13z"/>
<path d="M663 1703 c-18 -9 -33 -23 -33 -31 0 -11 3 -12 14 -3 12 10 46 6 46
-5 0 -3 -7 -16 -16 -30 -23 -35 -13 -39 38 -15 40 20 29 23 -17 6 -16 -7 -14
-2 9 23 l28 31 -33 4 c-31 4 -32 5 -11 12 12 4 22 11 22 16 0 12 -9 10 -47 -8z"/>
<path d="M2871 1704 c0 -11 3 -14 6 -6 3 7 2 16 -1 19 -3 4 -6 -2 -5 -13z"/>
<path d="M790 1669 c0 -5 5 -7 10 -4 6 3 10 8 10 11 0 2 -4 4 -10 4 -5 0 -10
-5 -10 -11z"/>
<path d="M2605 1670 c3 -5 8 -10 11 -10 2 0 4 5 4 10 0 6 -5 10 -11 10 -5 0
-7 -4 -4 -10z"/>
<path d="M2674 1659 c-14 -15 -16 -24 -8 -37 12 -19 74 -47 74 -33 0 5 -10 13
-22 17 -39 11 -49 24 -37 45 9 18 12 18 39 4 43 -22 61 -18 20 5 -44 24 -43
24 -66 -1z"/>
<path d="M2575 1620 c-3 -5 -1 -10 4 -10 6 0 11 5 11 10 0 6 -2 10 -4 10 -3 0
-8 -4 -11 -10z"/>
<path d="M570 1599 c0 -5 5 -7 10 -4 6 3 10 8 10 11 0 2 -4 4 -10 4 -5 0 -10
-5 -10 -11z"/>
<path d="M2825 1600 c3 -5 8 -10 11 -10 2 0 4 5 4 10 0 6 -5 10 -11 10 -5 0
-7 -4 -4 -10z"/>
<path d="M789 1541 c10 -18 10 -26 1 -35 -9 -8 -14 -8 -17 2 -3 6 -9 12 -15
12 -7 0 -6 -5 1 -14 9 -11 9 -16 0 -22 -7 -4 -20 3 -31 17 -21 26 -20 20 1
-23 l13 -26 39 26 c44 31 47 42 18 68 -22 19 -22 19 -10 -5z"/>
<path d="M2590 1520 c-12 -16 -17 -30 -11 -30 5 0 14 7 19 17 6 10 16 14 27 9
14 -5 15 -9 5 -21 -9 -10 -9 -15 -1 -15 6 0 11 5 11 10 0 6 7 10 15 10 19 0
19 -10 -1 -38 -8 -12 -10 -22 -5 -22 6 0 17 12 25 28 14 26 13 28 -24 55 l-38
27 -22 -30z"/>
<path d="M830 1405 c-19 -19 -29 -35 -23 -35 6 0 16 7 23 15 20 25 30 17 19
-15 -18 -49 -6 -56 34 -20 21 18 35 35 32 38 -3 3 -14 -3 -25 -13 -25 -23 -33
-15 -20 19 21 57 8 61 -40 11z"/>
<path d="M2506 1409 c-20 -29 -21 -59 -2 -59 8 0 16 -7 20 -15 8 -21 30 -19
51 5 18 20 18 21 -17 56 l-35 36 -17 -23z m34 -23 c0 -18 -16 -29 -30 -21 -13
8 -1 35 16 35 8 0 14 -6 14 -14z m30 -31 c0 -14 -24 -27 -34 -18 -3 3 -1 14 5
25 11 20 29 16 29 -7z"/>
<path d="M675 1410 c3 -5 8 -10 11 -10 2 0 4 5 4 10 0 6 -5 10 -11 10 -5 0 -7
-4 -4 -10z"/>
<path d="M980 1410 c0 -5 5 -10 11 -10 5 0 7 5 4 10 -3 6 -8 10 -11 10 -2 0
-4 -4 -4 -10z"/>
<path d="M2415 1410 c-3 -5 -1 -10 4 -10 6 0 11 5 11 10 0 6 -2 10 -4 10 -3 0
-8 -4 -11 -10z"/>
<path d="M2720 1409 c0 -5 5 -7 10 -4 6 3 10 8 10 11 0 2 -4 4 -10 4 -5 0 -10
-5 -10 -11z"/>
<path d="M984 1313 c23 -28 15 -63 -10 -42 -13 11 -14 9 -9 -14 8 -31 0 -34
-27 -10 -10 9 -18 12 -18 7 0 -5 11 -17 25 -27 24 -17 24 -17 51 19 l27 35
-28 27 c-19 17 -22 19 -11 5z"/>
<path d="M1100 1300 c0 -5 5 -10 10 -10 6 0 10 5 10 10 0 6 -4 10 -10 10 -5 0
-10 -4 -10 -10z"/>
<path d="M2290 1300 c0 -5 5 -10 10 -10 6 0 10 5 10 10 0 6 -4 10 -10 10 -5 0
-10 -4 -10 -10z"/>
<path d="M2394 1288 c-16 -19 -16 -21 -1 -9 16 12 21 11 45 -12 39 -38 48 -33
16 8 -31 41 -35 42 -60 13z"/>
<path d="M1145 1270 c-3 -5 -1 -10 4 -10 6 0 11 5 11 10 0 6 -2 10 -4 10 -3 0
-8 -4 -11 -10z"/>
<path d="M2250 1270 c0 -5 5 -10 11 -10 5 0 7 5 4 10 -3 6 -8 10 -11 10 -2 0
-4 -4 -4 -10z"/>
<path d="M820 1240 c0 -5 5 -10 11 -10 5 0 7 5 4 10 -3 6 -8 10 -11 10 -2 0
-4 -4 -4 -10z"/>
<path d="M1190 1240 c0 -5 5 -10 11 -10 5 0 7 5 4 10 -3 6 -8 10 -11 10 -2 0
-4 -4 -4 -10z"/>
<path d="M2205 1240 c-3 -5 -1 -10 4 -10 6 0 11 5 11 10 0 6 -2 10 -4 10 -3 0
-8 -4 -11 -10z"/>
<path d="M2575 1240 c-3 -5 -1 -10 4 -10 6 0 11 5 11 10 0 6 -2 10 -4 10 -3 0
-8 -4 -11 -10z"/>
<path d="M2313 1218 c7 -20 -27 -45 -38 -28 -4 6 -11 8 -16 4 -11 -6 58 -63
77 -64 14 0 -2 78 -19 95 -7 7 -8 4 -4 -7z m17 -49 c0 -5 -7 -9 -15 -9 -15 0
-20 12 -9 23 8 8 24 -1 24 -14z"/>
<path d="M1064 1184 c-17 -36 -17 -37 7 -55 13 -10 26 -19 29 -19 3 0 16 19
29 42 23 40 23 42 5 55 -30 22 -52 15 -70 -23z m61 17 c3 -5 0 -21 -6 -35 -13
-29 -49 -36 -49 -10 0 12 6 15 23 11 21 -6 21 -5 3 8 -10 7 -15 18 -11 24 8
13 32 14 40 2z"/>
<path d="M1235 1210 c3 -5 8 -10 11 -10 2 0 4 5 4 10 0 6 -5 10 -11 10 -5 0
-7 -4 -4 -10z"/>
<path d="M2160 1209 c0 -5 5 -7 10 -4 6 3 10 8 10 11 0 2 -4 4 -10 4 -5 0 -10
-5 -10 -11z"/>
<path d="M1285 1190 c3 -5 8 -10 11 -10 2 0 4 5 4 10 0 6 -5 10 -11 10 -5 0
-7 -4 -4 -10z"/>
<path d="M2110 1189 c0 -5 5 -7 10 -4 6 3 10 8 10 11 0 2 -4 4 -10 4 -5 0 -10
-5 -10 -11z"/>
<path d="M1335 1170 c3 -5 8 -10 11 -10 2 0 4 5 4 10 0 6 -5 10 -11 10 -5 0
-7 -4 -4 -10z"/>
<path d="M898 1163 c7 -3 16 -2 19 1 4 3 -2 6 -13 5 -11 0 -14 -3 -6 -6z"/>
<path d="M2498 1163 c7 -3 16 -2 19 1 4 3 -2 6 -13 5 -11 0 -14 -3 -6 -6z"/>
<path d="M1590 1110 c0 -5 5 -10 11 -10 5 0 7 5 4 10 -3 6 -8 10 -11 10 -2 0
-4 -4 -4 -10z"/>
<path d="M1805 1110 c-3 -5 -1 -10 4 -10 6 0 11 5 11 10 0 6 -2 10 -4 10 -3 0
-8 -4 -11 -10z"/>
<path d="M980 1100 c0 -5 5 -10 10 -10 6 0 10 5 10 10 0 6 -4 10 -10 10 -5 0
-10 -4 -10 -10z"/>
<path d="M2410 1100 c0 -5 5 -10 10 -10 6 0 10 5 10 10 0 6 -4 10 -10 10 -5 0
-10 -4 -10 -10z"/>
<path d="M1270 1065 c0 -8 5 -15 10 -15 6 0 10 7 10 15 0 8 -4 15 -10 15 -5 0
-10 -7 -10 -15z"/>
<path d="M2120 1070 c0 -5 7 -10 15 -10 8 0 15 5 15 10 0 6 -7 10 -15 10 -8 0
-15 -4 -15 -10z"/>
<path d="M1070 1040 c0 -5 5 -10 10 -10 6 0 10 5 10 10 0 6 -4 10 -10 10 -5 0
-10 -4 -10 -10z"/>
<path d="M1469 1048 c-6 -31 -5 -88 1 -82 14 15 24 84 11 84 -6 0 -11 -1 -12
-2z"/>
<path d="M1903 1008 c2 -38 5 -43 28 -46 31 -4 58 23 41 40 -7 7 -13 21 -13
33 -1 16 -2 17 -6 3 -2 -10 -14 -18 -25 -18 -14 0 -18 5 -14 15 3 8 1 15 -4
15 -5 0 -9 -19 -7 -42z m53 -9 c9 -16 -12 -33 -31 -25 -14 5 -15 9 -5 21 15
18 26 19 36 4z"/>
<path d="M2320 1040 c0 -5 5 -10 10 -10 6 0 10 5 10 10 0 6 -4 10 -10 10 -5 0
-10 -4 -10 -10z"/>
<path d="M1600 1025 c0 -8 0 -18 -1 -22 0 -4 4 -9 10 -11 6 -2 8 3 5 12 -5 12
0 16 20 16 14 0 26 5 26 10 0 6 -13 10 -30 10 -20 0 -30 -5 -30 -15z"/>
<path d="M1740 1030 c0 -5 13 -10 29 -10 l30 0 -15 -36 c-8 -20 -13 -38 -11
-40 5 -5 37 70 37 86 0 6 -16 10 -35 10 -19 0 -35 -4 -35 -10z"/>
<path d="M1638 987 c18 -22 5 -40 -25 -34 -16 3 -21 1 -15 -5 5 -5 20 -8 33
-6 18 2 24 9 24 27 0 13 -7 27 -15 29 -13 4 -13 3 -2 -11z"/>
<path d="M1325 930 c-3 -5 -1 -10 4 -10 6 0 11 5 11 10 0 6 -2 10 -4 10 -3 0
-8 -4 -11 -10z"/>
<path d="M2070 930 c0 -5 5 -10 11 -10 5 0 7 5 4 10 -3 6 -8 10 -11 10 -2 0
-4 -4 -4 -10z"/>
<path d="M1375 910 c3 -5 8 -10 11 -10 2 0 4 5 4 10 0 6 -5 10 -11 10 -5 0 -7
-4 -4 -10z"/>
<path d="M2020 909 c0 -5 5 -7 10 -4 6 3 10 8 10 11 0 2 -4 4 -10 4 -5 0 -10
-5 -10 -11z"/>
<path d="M1535 880 c-3 -5 -1 -10 4 -10 6 0 11 5 11 10 0 6 -2 10 -4 10 -3 0
-8 -4 -11 -10z"/>
<path d="M1860 880 c0 -5 5 -10 11 -10 5 0 7 5 4 10 -3 6 -8 10 -11 10 -2 0
-4 -4 -4 -10z"/>
<path d="M1590 869 c0 -5 5 -7 10 -4 6 3 10 8 10 11 0 2 -4 4 -10 4 -5 0 -10
-5 -10 -11z"/>
<path d="M1640 870 c0 -5 5 -10 10 -10 6 0 10 5 10 10 0 6 -4 10 -10 10 -5 0
-10 -4 -10 -10z"/>
<path d="M1750 869 c0 -5 5 -7 10 -4 6 3 10 8 10 11 0 2 -4 4 -10 4 -5 0 -10
-5 -10 -11z"/>
<path d="M1805 870 c3 -5 8 -10 11 -10 2 0 4 5 4 10 0 6 -5 10 -11 10 -5 0 -7
-4 -4 -10z"/>
<path d="M700 340 l0 -280 150 0 c93 0 150 4 150 10 0 6 14 10 32 10 55 0 118
38 139 84 23 52 23 80 0 132 -12 27 -29 45 -50 53 -17 8 -31 15 -31 16 0 2 16
19 35 38 30 30 35 42 35 82 0 56 -24 95 -74 119 -27 13 -68 16 -210 16 l-176
0 0 -280z m297 154 c19 -26 16 -42 -12 -69 -19 -20 -34 -25 -75 -25 l-50 0 0
53 c0 30 3 57 8 61 13 15 116 -2 129 -20z m-8 -195 c39 -14 50 -49 27 -84 -15
-23 -23 -25 -86 -25 l-70 0 0 60 0 60 49 0 c26 0 62 -5 80 -11z"/>
<path d="M1202 428 c3 -172 6 -198 25 -240 21 -46 90 -108 120 -108 7 0 13 -4
13 -10 0 -6 40 -10 100 -10 60 0 100 4 100 10 0 6 6 10 13 10 31 0 95 61 118
112 21 48 24 70 27 241 l4 187 -81 0 -81 0 0 -170 c0 -223 -15 -260 -102 -260
-24 0 -42 8 -61 28 l-27 28 0 187 0 187 -86 0 -86 0 4 -192z"/>
<path d="M1861 558 c-13 -35 -38 -106 -57 -158 -19 -52 -43 -114 -54 -137 -11
-24 -20 -49 -20 -56 0 -8 -11 -41 -25 -75 -14 -34 -25 -64 -25 -67 0 -3 36 -5
79 -5 l80 0 17 55 18 55 96 0 97 0 11 -39 c7 -21 12 -46 12 -55 0 -14 19 -16
170 -16 l170 0 0 109 0 108 83 5 c135 7 188 51 195 161 4 71 -15 117 -61 151
-26 19 -45 21 -208 24 l-180 4 1 -262 c1 -144 0 -264 -2 -266 -3 -2 -16 31
-31 74 -15 42 -58 160 -95 262 l-68 185 -90 3 -90 3 -23 -63z m682 -69 c38
-46 8 -94 -65 -104 l-48 -6 0 72 0 72 48 -7 c30 -4 53 -13 65 -27z m-540 -105
c15 -47 24 -90 21 -95 -6 -11 -101 -12 -108 -1 -5 9 46 182 55 182 3 0 18 -39
32 -86z"/>
</g>
</svg>
